<?xml version="1.0" ?><svg enable-background="new 0 0 52 52" id="Layer_1" version="1.1" viewBox="0 0 52 52" xml:space="preserve" xmlns="http://www.w3.org/2000/svg" xmlns:xlink="http://www.w3.org/1999/xlink"><g><g><rect fill="#F93E2B" height="12.3200073" width="48" x="2" y="5"/></g><g><path d="M25.5,34.0100098c2.210022,0,4-1.7900391,4-4c0-2.210022-1.789978-4-4-4c-2.2000122,0-4,1.789978-4,4    C21.5,32.2199707,23.2999878,34.0100098,25.5,34.0100098z"/></g><g><path d="M4,25.4000244C4,37.3099976,13.8699951,47,26,47s22-9.6900024,22-21.5999756v-6.0800171H4V25.4000244z M25.5,21.0100098    c4.9700317,0,9,4.039978,9,9c0,4.9599609-4.0299683,9-9,9c-4.960022,0-9-4.0400391-9-9    C16.5,25.0499878,20.539978,21.0100098,25.5,21.0100098z"/></g></g></svg>